<svg width="14" height="18" viewBox="0 0 14 18" fill="none" xmlns="http://www.w3.org/2000/svg">
<path d="M7 0C3.16129 0 0 3.04959 0 6.84298C0 10.7851 4.21505 15.6198 6.02151 17.5537C6.24731 17.8512 6.62366 18 7 18C7.37634 18 7.75269 17.8512 7.9785 17.5537C9.78495 15.6198 14 10.7107 14 6.84298C14 3.04959 10.8387 0 7 0ZM7.07527 16.7355C7.07527 16.8099 7 16.8099 7 16.8099C7 16.8099 6.92473 16.8099 6.92473 16.7355C5.56989 15.3223 1.2043 10.4132 1.2043 6.84298C1.2043 3.71901 3.83871 1.19008 7 1.19008C10.1613 1.19008 12.7957 3.71901 12.7957 6.84298C12.7957 10.4132 8.43011 15.3223 7.07527 16.7355Z" fill="#D66C80"/>
<path d="M7.00011 3.42139C5.04312 3.42139 3.38721 5.05775 3.38721 6.99163C3.38721 8.92552 5.04312 10.5619 7.00011 10.5619C8.9571 10.5619 10.613 8.92552 10.613 6.99163C10.613 5.05775 8.9571 3.42139 7.00011 3.42139ZM7.00011 9.3718C5.64527 9.3718 4.59151 8.33048 4.59151 6.99163C4.59151 5.65279 5.64527 4.61147 7.00011 4.61147C8.35495 4.61147 9.40871 5.65279 9.40871 6.99163C9.40871 8.33048 8.35495 9.3718 7.00011 9.3718Z" fill="#D66C80"/>
</svg>
