<svg width="14" height="14" viewBox="0 0 14 14" fill="none" xmlns="http://www.w3.org/2000/svg">
<path d="M7 0C3.15 0 0 3.15 0 7C0 10.85 3.15 14 7 14C10.85 14 14 10.85 14 7C14 3.15 10.85 0 7 0ZM7 12.8333C3.79167 12.8333 1.16667 10.2083 1.16667 7C1.16667 3.79167 3.79167 1.16667 7 1.16667C10.2083 1.16667 12.8333 3.79167 12.8333 7C12.8333 10.2083 10.2083 12.8333 7 12.8333Z" fill="#D66C80"/>
<path d="M7.58341 6.76683V2.91683C7.58341 2.56683 7.35008 2.3335 7.00008 2.3335C6.65008 2.3335 6.41675 2.56683 6.41675 2.91683V7.00016C6.41675 7.0585 6.41675 7.17516 6.47508 7.2335C6.53341 7.29183 6.53341 7.35016 6.59175 7.4085L9.50841 10.3252C9.62508 10.4418 9.80008 10.5002 9.91675 10.5002C10.0334 10.5002 10.2084 10.4418 10.3251 10.3252C10.5584 10.0918 10.5584 9.74183 10.3251 9.5085L7.58341 6.76683Z" fill="#D66C80"/>
</svg>
