<svg width="12" height="22" viewBox="0 0 12 22" fill="none" xmlns="http://www.w3.org/2000/svg">
<path d="M9.82609 0H2.17391C0.956522 0 0 0.975807 0 2.21774V3.45968V17.6532V19.7823C0 21.0242 0.956522 22 2.17391 22H9.82609C11.0435 22 12 21.0242 12 19.7823V17.6532V3.45968V2.21774C12 0.975807 11.0435 0 9.82609 0ZM1.56522 4.25806H10.4348V16.8548H1.56522V4.25806ZM1.56522 2.21774C1.56522 1.8629 1.82609 1.59677 2.17391 1.59677H9.91304C10.2609 1.59677 10.5217 1.8629 10.5217 2.21774V2.66129H1.56522V2.21774ZM10.4348 19.7823C10.4348 20.1371 10.1739 20.4032 9.82609 20.4032H2.17391C1.82609 20.4032 1.56522 20.1371 1.56522 19.7823V18.4516H10.4348V19.7823Z" fill="#D66C80"/>
</svg>
