<svg width="18" height="18" viewBox="0 0 18 18" fill="none" xmlns="http://www.w3.org/2000/svg">
<path d="M9.11165 17.7503C9.05536 17.7503 8.99907 17.7503 8.94239 17.75C7.60986 17.7533 6.37862 17.7194 5.18123 17.6465C4.08345 17.5798 3.08139 17.2004 2.28322 16.5495C1.51306 15.9215 0.987129 15.0724 0.720078 14.026C0.487656 13.115 0.475334 12.2207 0.463531 11.3557C0.454971 10.7351 0.446152 9.9997 0.444336 9.25185C0.446152 8.50089 0.454971 7.76549 0.463531 7.14488C0.475334 6.28004 0.487656 5.38576 0.720078 4.47462C0.987129 3.4282 1.51306 2.57906 2.28322 1.95105C3.08139 1.30022 4.08345 0.920843 5.18136 0.854048C6.37875 0.781286 7.61024 0.747305 8.94563 0.750547C10.2786 0.747694 11.5094 0.781286 12.7068 0.854048C13.8046 0.920843 14.8066 1.30022 15.6048 1.95105C16.3751 2.57906 16.9009 3.4282 17.1679 4.47462C17.4004 5.38563 17.4127 6.28004 17.4245 7.14488C17.4331 7.76549 17.442 8.50089 17.4437 9.24874V9.25185C17.442 9.9997 17.4331 10.7351 17.4245 11.3557C17.4127 12.2206 17.4005 13.1148 17.1679 14.026C16.9009 15.0724 16.3751 15.9215 15.6048 16.5495C14.8066 17.2004 13.8046 17.5798 12.7068 17.6465C11.5601 17.7163 10.3822 17.7503 9.11165 17.7503ZM8.94239 16.4219C10.2533 16.425 11.4569 16.392 12.6261 16.3209C13.4562 16.2704 14.1759 16.001 14.7655 15.5202C15.3105 15.0758 15.6859 14.4625 15.8811 13.6976C16.0746 12.9392 16.0857 12.125 16.0965 11.3376C16.1049 10.7211 16.1137 9.99088 16.1156 9.2503C16.1137 8.50958 16.1049 7.7795 16.0965 7.16304C16.0857 6.37563 16.0746 5.56138 15.8811 4.80289C15.6859 4.03792 15.3105 3.4247 14.7655 2.98022C14.1759 2.49955 13.4562 2.23016 12.6261 2.17971C11.4569 2.10851 10.2533 2.07569 8.9455 2.07854C7.63489 2.07543 6.43114 2.10851 5.2619 2.17971C4.43182 2.23016 3.71212 2.49955 3.12251 2.98022C2.57751 3.4247 2.20216 4.03792 2.00696 4.80289C1.81345 5.56138 1.80229 6.3755 1.79153 7.16304C1.7831 7.78002 1.77428 8.51062 1.77246 9.25185C1.77428 9.98985 1.7831 10.7206 1.79153 11.3376C1.80229 12.125 1.81345 12.9392 2.00696 13.6976C2.20216 14.4625 2.57751 15.0758 3.12251 15.5202C3.71212 16.0009 4.43182 16.2703 5.2619 16.3208C6.43114 16.392 7.63515 16.4252 8.94239 16.4219ZM8.91074 13.4007C6.62232 13.4007 4.76035 11.5389 4.76035 9.2503C4.76035 6.96174 6.62232 5.0999 8.91074 5.0999C11.1993 5.0999 13.0611 6.96174 13.0611 9.2503C13.0611 11.5389 11.1993 13.4007 8.91074 13.4007ZM8.91074 6.42803C7.35461 6.42803 6.08848 7.69416 6.08848 9.2503C6.08848 10.8064 7.35461 12.0726 8.91074 12.0726C10.467 12.0726 11.733 10.8064 11.733 9.2503C11.733 7.69416 10.467 6.42803 8.91074 6.42803ZM13.526 3.77178C12.9759 3.77178 12.5299 4.21768 12.5299 4.76787C12.5299 5.31806 12.9759 5.76397 13.526 5.76397C14.0762 5.76397 14.5221 5.31806 14.5221 4.76787C14.5221 4.21768 14.0762 3.77178 13.526 3.77178Z" fill="#C0A1A7"/>
</svg>
