<svg width="14" height="19" viewBox="0 0 14 19" fill="none" xmlns="http://www.w3.org/2000/svg">
<path d="M7 0.1521C3.16129 0.1521 0 3.20169 0 6.99507C0 10.9372 4.21505 15.7719 6.02151 17.7058C6.24731 18.0033 6.62366 18.1521 7 18.1521C7.37634 18.1521 7.75269 18.0033 7.9785 17.7058C9.78495 15.7719 14 10.8628 14 6.99507C14 3.20169 10.8387 0.1521 7 0.1521ZM7.07527 16.8876C7.07527 16.962 7 16.962 7 16.962C7 16.962 6.92473 16.962 6.92473 16.8876C5.56989 15.4744 1.2043 10.5653 1.2043 6.99507C1.2043 3.87111 3.83871 1.34218 7 1.34218C10.1613 1.34218 12.7957 3.87111 12.7957 6.99507C12.7957 10.5653 8.43011 15.4744 7.07527 16.8876Z" fill="#C9B8BF"/>
<path d="M7 3.57356C5.04301 3.57356 3.3871 5.20993 3.3871 7.14381C3.3871 9.07769 5.04301 10.7141 7 10.7141C8.95699 10.7141 10.6129 9.07769 10.6129 7.14381C10.6129 5.20993 8.95699 3.57356 7 3.57356ZM7 9.52398C5.64516 9.52398 4.5914 8.48265 4.5914 7.14381C4.5914 5.80497 5.64516 4.76364 7 4.76364C8.35484 4.76364 9.4086 5.80497 9.4086 7.14381C9.4086 8.48265 8.35484 9.52398 7 9.52398Z" fill="#C9B8BF"/>
</svg>
