<svg width="118" height="165" viewBox="0 0 118 165" fill="none" xmlns="http://www.w3.org/2000/svg">
<path d="M59.0603 0C26.8891 0 0.70874 27.9537 0.70874 62.3219C0.70874 111.155 53.5753 161.576 55.825 163.694C56.7522 164.567 57.9062 165 59.0603 165C60.2144 165 61.3684 164.567 62.2956 163.701C64.5453 161.576 117.412 111.155 117.412 62.3219C117.412 27.9537 91.2315 0 59.0603 0ZM59.0603 96.25C41.1853 96.25 26.6428 80.8294 26.6428 61.875C26.6428 42.9206 41.1853 27.5 59.0603 27.5C76.9353 27.5 91.4778 42.9206 91.4778 61.875C91.4778 80.8294 76.9353 96.25 59.0603 96.25Z" fill="#454545"/>
</svg>
