<svg width="10" height="19" viewBox="0 0 10 19" fill="none" xmlns="http://www.w3.org/2000/svg">
<path d="M8.23349 0.694427H2.21095C1.25282 0.694427 0.5 1.49035 0.5 2.50334V3.51634V15.0934V16.83C0.5 17.8429 1.25282 18.6389 2.21095 18.6389H8.23349C9.19163 18.6389 9.94444 17.8429 9.94444 16.83V15.0934V3.51634V2.50334C9.94444 1.49035 9.19163 0.694427 8.23349 0.694427ZM1.73188 4.16755H8.71256V14.4422H1.73188V4.16755ZM1.73188 2.50334C1.73188 2.21392 1.9372 1.99685 2.21095 1.99685H8.30193C8.57568 1.99685 8.781 2.21392 8.781 2.50334V2.86513H1.73188V2.50334ZM8.71256 16.83C8.71256 17.1194 8.50725 17.3365 8.23349 17.3365H2.21095C1.9372 17.3365 1.73188 17.1194 1.73188 16.83V15.7446H8.71256V16.83Z" fill="#C0A1A7"/>
</svg>
