<svg width="12" height="23" viewBox="0 0 12 23" fill="none" xmlns="http://www.w3.org/2000/svg">
<path d="M9.82609 0.1521H2.17391C0.956522 0.1521 0 1.12791 0 2.36984V3.61178V17.8053V19.9344C0 21.1763 0.956522 22.1521 2.17391 22.1521H9.82609C11.0435 22.1521 12 21.1763 12 19.9344V17.8053V3.61178V2.36984C12 1.12791 11.0435 0.1521 9.82609 0.1521ZM1.56522 4.41016H10.4348V17.0069H1.56522V4.41016ZM1.56522 2.36984C1.56522 2.015 1.82609 1.74887 2.17391 1.74887H9.91304C10.2609 1.74887 10.5217 2.015 10.5217 2.36984V2.81339H1.56522V2.36984ZM10.4348 19.9344C10.4348 20.2892 10.1739 20.5553 9.82609 20.5553H2.17391C1.82609 20.5553 1.56522 20.2892 1.56522 19.9344V18.6037H10.4348V19.9344Z" fill="#C9B8BF"/>
</svg>
