<svg style="display: none;" xmlns="http://www.w3.org/2000/svg" xmlns:xlink="http://www.w3.org/1999/xlink">
    <symbol id="instagram" viewBox="0 0 18 18">
        <g>
            <path d="M9.11165 17.7503C9.05536 17.7503 8.99907 17.7503 8.94239 17.75C7.60986 17.7533 6.37862 17.7194 5.18123 17.6465C4.08345 17.5798 3.08139 17.2004 2.28322 16.5495C1.51306 15.9215 0.987129 15.0724 0.720078 14.026C0.487656 13.115 0.475334 12.2207 0.463531 11.3557C0.454971 10.7351 0.446152 9.9997 0.444336 9.25185C0.446152 8.50089 0.454971 7.76549 0.463531 7.14488C0.475334 6.28004 0.487656 5.38576 0.720078 4.47462C0.987129 3.4282 1.51306 2.57906 2.28322 1.95105C3.08139 1.30022 4.08345 0.920843 5.18136 0.854048C6.37875 0.781286 7.61024 0.747305 8.94563 0.750547C10.2786 0.747694 11.5094 0.781286 12.7068 0.854048C13.8046 0.920843 14.8066 1.30022 15.6048 1.95105C16.3751 2.57906 16.9009 3.4282 17.1679 4.47462C17.4004 5.38563 17.4127 6.28004 17.4245 7.14488C17.4331 7.76549 17.442 8.50089 17.4437 9.24874V9.25185C17.442 9.9997 17.4331 10.7351 17.4245 11.3557C17.4127 12.2206 17.4005 13.1148 17.1679 14.026C16.9009 15.0724 16.3751 15.9215 15.6048 16.5495C14.8066 17.2004 13.8046 17.5798 12.7068 17.6465C11.5601 17.7163 10.3822 17.7503 9.11165 17.7503V17.7503ZM8.94239 16.4219C10.2533 16.425 11.4569 16.392 12.6261 16.3209C13.4562 16.2704 14.1759 16.001 14.7655 15.5202C15.3105 15.0758 15.6859 14.4625 15.8811 13.6976C16.0746 12.9392 16.0857 12.125 16.0965 11.3376C16.1049 10.7211 16.1137 9.99088 16.1156 9.2503C16.1137 8.50958 16.1049 7.7795 16.0965 7.16304C16.0857 6.37563 16.0746 5.56138 15.8811 4.80289C15.6859 4.03792 15.3105 3.4247 14.7655 2.98022C14.1759 2.49955 13.4562 2.23016 12.6261 2.17971C11.4569 2.1085 10.2533 2.07569 8.9455 2.07854C7.63489 2.07543 6.43114 2.1085 5.2619 2.17971C4.43182 2.23016 3.71212 2.49955 3.12251 2.98022C2.57751 3.4247 2.20216 4.03792 2.00696 4.80289C1.81345 5.56138 1.80229 6.3755 1.79153 7.16304C1.7831 7.78002 1.77428 8.51062 1.77246 9.25185C1.77428 9.98985 1.7831 10.7206 1.79153 11.3376C1.80229 12.125 1.81345 12.9392 2.00696 13.6976C2.20216 14.4625 2.57751 15.0758 3.12251 15.5202C3.71212 16.0009 4.43182 16.2703 5.2619 16.3208C6.43114 16.392 7.63515 16.4252 8.94239 16.4219V16.4219ZM8.91074 13.4007C6.62232 13.4007 4.76035 11.5389 4.76035 9.2503C4.76035 6.96174 6.62232 5.0999 8.91074 5.0999C11.1993 5.0999 13.0611 6.96174 13.0611 9.2503C13.0611 11.5389 11.1993 13.4007 8.91074 13.4007V13.4007ZM8.91074 6.42803C7.35461 6.42803 6.08848 7.69416 6.08848 9.2503C6.08848 10.8064 7.35461 12.0726 8.91074 12.0726C10.467 12.0726 11.733 10.8064 11.733 9.2503C11.733 7.69416 10.467 6.42803 8.91074 6.42803V6.42803ZM13.526 3.77178C12.9759 3.77178 12.5299 4.21768 12.5299 4.76787C12.5299 5.31806 12.9759 5.76397 13.526 5.76397C14.0762 5.76397 14.5221 5.31806 14.5221 4.76787C14.5221 4.21768 14.0762 3.77178 13.526 3.77178Z"/>
        </g>
    </symbol>
    <symbol id="time" viewBox="0 0 17 17">
        <g>
            <g clip-path="url(#clip0)">
                <path d="M8.74995 0.638885C4.33467 0.638885 0.722168 4.25139 0.722168 8.66666C0.722168 13.0819 4.33467 16.6944 8.74995 16.6944C13.1652 16.6944 16.7777 13.0819 16.7777 8.66666C16.7777 4.25139 13.1652 0.638885 8.74995 0.638885ZM8.74995 15.3565C5.07055 15.3565 2.06013 12.3461 2.06013 8.66666C2.06013 4.98727 5.07055 1.97685 8.74995 1.97685C12.4293 1.97685 15.4398 4.98727 15.4398 8.66666C15.4398 12.3461 12.4293 15.3565 8.74995 15.3565Z"/>
                <path d="M9.4189 8.39908V3.9838C9.4189 3.58241 9.1513 3.31482 8.74991 3.31482C8.34853 3.31482 8.08093 3.58241 8.08093 3.9838V8.66667C8.08093 8.73357 8.08093 8.86736 8.14783 8.93426C8.21473 9.00116 8.21473 9.06806 8.28163 9.13496L11.6265 12.4799C11.7603 12.6137 11.961 12.6806 12.0948 12.6806C12.2286 12.6806 12.4293 12.6137 12.5631 12.4799C12.8307 12.2123 12.8307 11.8109 12.5631 11.5433L9.4189 8.39908Z"/>
            </g>
            <defs>
                <clipPath id="clip0">
                    <rect width="16.0556" height="16.0556" fill="white" transform="translate(0.722168 0.638885)"/>
                </clipPath>
            </defs>
        </g>
    </symbol>
    <symbol id="phone" viewBox="0 0 10 18">
        <g>
            <path d="M7.73349 0H1.71095C0.752818 0 0 0.795923 0 1.80892V2.82191V14.399V16.1355C0 17.1485 0.752818 17.9444 1.71095 17.9444H7.73349C8.69163 17.9444 9.44444 17.1485 9.44444 16.1355V14.399V2.82191V1.80892C9.44444 0.795923 8.69163 0 7.73349 0ZM1.23188 3.47312H8.21256V13.7478H1.23188V3.47312ZM1.23188 1.80892C1.23188 1.51949 1.4372 1.30242 1.71095 1.30242H7.80193C8.07568 1.30242 8.281 1.51949 8.281 1.80892V2.1707H1.23188V1.80892ZM8.21256 16.1355C8.21256 16.425 8.00725 16.642 7.73349 16.642H1.71095C1.4372 16.642 1.23188 16.425 1.23188 16.1355V15.0502H8.21256V16.1355Z"/>
        </g>
    </symbol>
    <symbol id="show-more" viewBox="0 0 14 14">
        <g>
            <path d="M13.3279 6.17063C13.2825 5.88622 13.0152 5.69247 12.7308 5.73784C12.4464 5.78322 12.2526 6.05058 12.298 6.33499C12.2985 6.3381 12.299 6.34119 12.2995 6.34427C12.8306 9.47041 10.7269 12.4351 7.60072 12.9662C4.47458 13.4972 1.50986 11.3935 0.978813 8.26736C0.447763 5.14122 2.55152 2.17651 5.67763 1.64546C7.60014 1.31889 9.55699 1.99043 10.8738 3.42869L8.5637 4.19838C8.29041 4.28931 8.14262 4.58454 8.23352 4.85782C8.23349 4.85776 8.23355 4.85788 8.23352 4.85782C8.32445 5.13111 8.61977 5.27912 8.89306 5.18822C8.893 5.18822 8.89315 5.18819 8.89306 5.18822L12.0221 4.14521C12.2352 4.07427 12.3789 3.87489 12.3788 3.65034V0.521486C12.3788 0.233472 12.1454 0 11.8573 0C11.5693 0 11.3359 0.233472 11.3359 0.521486V2.42642C8.65029 -0.127873 4.40253 -0.0214498 1.84823 2.66411C-0.706066 5.34967 -0.599672 9.59743 2.08592 12.1518C4.77152 14.7061 9.01925 14.5997 11.5736 11.9141C13.0301 10.3826 13.6802 8.25456 13.3279 6.17063Z"/>
        </g>
    </symbol>
    <symbol id="form-name" viewBox="0 0 20 24">
        <g>
            <path d="M13.2001 12H7.20007C5.30007 12 3.70007 10.4 3.70007 8.5C3.70007 8.2 3.90007 8 4.20007 8C5.00007 8 5.70007 7.3 5.70007 6.5V4.5C5.70007 2 7.70007 0 10.2001 0C12.7001 0 14.7001 2 14.7001 4.5V6.5C14.7001 7.3 15.4001 8 16.2001 8C16.5001 8 16.7001 8.2 16.7001 8.5C16.7001 10.4 15.1001 12 13.2001 12ZM4.80007 8.9C5.00007 10.1 6.00007 11 7.20007 11H13.2001C14.4001 11 15.5001 10.1 15.7001 8.9C14.6001 8.7 13.7001 7.7 13.7001 6.5V4.5C13.7001 2.6 12.1001 1 10.2001 1C8.30007 1 6.70007 2.6 6.70007 4.5V6.5C6.70007 7.7 5.90007 8.7 4.80007 8.9Z"/>
            <path d="M17.9 24H2.50002C2.00002 24 1.60002 23.8 1.30002 23.4C1.00002 23.1 0.900024 22.6 1.00002 22.1L1.60002 19.9C2.30002 17 4.90002 15 7.90002 15C8.00002 15 8.00002 15 8.10002 15L10.2 16L12.3 15.1C12.4 15.1 12.4 15.1 12.5 15.1C15.5 15.1 18.1 17.1 18.8 20L19.4 22.2C19.5 22.7 19.4 23.1 19.1 23.5C18.8 23.8 18.4 24 17.9 24ZM7.80002 16C5.30002 16 3.20002 17.7 2.60002 20.2L2.00002 22.4C2.00002 22.6 2.00002 22.7 2.10002 22.8C2.20002 22.9 2.30002 23 2.50002 23H17.9C18.1 23 18.2 22.9 18.3 22.8C18.4 22.7 18.4 22.5 18.4 22.4L17.8 20.2C17.2 17.8 15.1 16.1 12.6 16L10.4 17C10.3 17 10.1 17 10 17L7.80002 16Z"/>
        </g>
    </symbol>
    <symbol id="form-phone" viewBox="0 0 17 24">
        <g>
            <path d="M13.8206 24C11.2206 24 6.22065 20.2 3.22065 14.9L3.12065 14.8L3.52065 14.4L3.12065 14.6C0.0206478 9.4 -0.679352 3.2 0.620648 1C1.12065 0.2 1.62065 0 2.12065 0L5.32065 0.1C5.72065 0.1 6.12065 0.4 6.42065 0.8V0.9C6.62065 1.3 6.62065 1.5 6.62065 2.1C6.62065 2.3 6.62065 2.6 6.62065 2.9C6.82065 3.6 6.92065 4.4 7.02065 4.9C7.12065 5.7 6.72065 6.4 6.02065 6.6L5.22065 6.8C5.02065 6.9 4.92065 7 4.82065 7.1C4.72065 7.4 5.02065 8.8 6.42065 11.6C6.62065 12 6.82065 12.4 6.92065 12.6C7.02065 12.8 7.22065 13.2 7.52065 13.6C9.22065 16.3 10.3206 17.3 10.6206 17.3C10.8206 17.3 10.9206 17.2 11.0206 17.1L11.6206 16.5C12.1206 16 13.0206 16 13.5206 16.5C13.9206 16.9 14.5206 17.3 15.0206 17.7C15.3206 17.9 15.5206 18 15.7206 18.1C16.2206 18.4 16.4206 18.6 16.6206 18.9C16.8206 19.3 16.9206 19.8 16.7206 20.2L15.2206 23.1C15.2206 23.6 14.7206 24 13.8206 24ZM4.02065 14.2V14.4C7.12065 19.7 11.8206 23 13.8206 23C14.4206 23 14.5206 22.8 14.5206 22.7L16.0206 19.9C16.0206 19.8 16.0206 19.7 16.0206 19.6L15.9206 19.5C15.8206 19.3 15.8206 19.3 15.3206 19C15.1206 18.9 14.9206 18.7 14.6206 18.5C14.1206 18.1 13.4206 17.6 13.0206 17.2C12.8206 17 12.5206 17 12.4206 17.1L11.8206 17.7C11.5206 18 11.1206 18.2 10.6206 18.2C10.3206 18.2 9.32065 18.2 6.72065 14.1C6.42065 13.7 6.22065 13.3 6.12065 13.1C6.02065 12.9 5.82065 12.5 5.52065 12.1C3.32065 7.8 3.82065 6.9 3.92065 6.6C4.12065 6.2 4.52065 5.9 4.92065 5.8L5.72065 5.6C5.92065 5.6 6.02065 5.3 6.02065 5.1C5.92065 4.5 5.82065 3.7 5.72065 3.1C5.72065 2.7 5.72065 2.4 5.72065 2.2C5.72065 1.6 5.72065 1.6 5.62065 1.4L5.52065 1.3C5.52065 1.2 5.42065 1.2 5.32065 1.2L2.02065 1C2.02065 1 1.72065 1 1.52065 1.5C0.520648 3.2 0.920648 8.9 4.02065 14.2L3.52065 14.4L4.02065 14.2Z"/>
        </g>
    </symbol>
    <symbol id="arrow-back" viewBox="0 0 71 28">
        <g>
            <path d="M0.256379 13.3814L13.3814 0.256368C13.7232 -0.0854561 14.2769 -0.0854561 14.6187 0.256368C14.9605 0.598193 14.9605 1.1519 14.6187 1.49365L2.98728 13.125H70.125C70.6087 13.125 71 13.5164 71 14.0001C71 14.4837 70.6087 14.8751 70.125 14.8751H2.98728L14.6187 26.5064C14.9605 26.8482 14.9605 27.4019 14.6187 27.7437C14.4478 27.9145 14.2238 28 14 28C13.7761 28 13.5522 27.9145 13.3813 27.7437L0.256296 14.6187C-0.0854461 14.2769 -0.0854455 13.7232 0.256379 13.3814Z"/>
        </g>
    </symbol>
    <symbol id="hamburger" viewBox="0 0 23 18">
        <g>
            <path d="M0 0H23V1.63636H0V0Z"/>
            <path d="M0 8.18182H23V9.81818H0V8.18182Z"/>
            <path d="M0 16.3636H23V18H0V16.3636Z"/>
        </g>
    </symbol>
</svg>