<svg width="14" height="15" viewBox="0 0 14 15" fill="none" xmlns="http://www.w3.org/2000/svg">
<path d="M7 0.1521C3.15 0.1521 0 3.3021 0 7.1521C0 11.0021 3.15 14.1521 7 14.1521C10.85 14.1521 14 11.0021 14 7.1521C14 3.3021 10.85 0.1521 7 0.1521ZM7 12.9854C3.79167 12.9854 1.16667 10.3604 1.16667 7.1521C1.16667 3.94377 3.79167 1.31877 7 1.31877C10.2083 1.31877 12.8333 3.94377 12.8333 7.1521C12.8333 10.3604 10.2083 12.9854 7 12.9854Z" fill="#C9B8BF"/>
<path d="M7.58333 6.91868V3.06868C7.58333 2.71868 7.35 2.48535 7 2.48535C6.65 2.48535 6.41667 2.71868 6.41667 3.06868V7.15202C6.41667 7.21035 6.41667 7.32702 6.475 7.38535C6.53333 7.44368 6.53333 7.50202 6.59167 7.56035L9.50833 10.477C9.625 10.5937 9.8 10.652 9.91666 10.652C10.0333 10.652 10.2083 10.5937 10.325 10.477C10.5583 10.2437 10.5583 9.89368 10.325 9.66035L7.58333 6.91868Z" fill="#C9B8BF"/>
</svg>
